<svg width="36" height="36" viewBox="0 0 36 36" fill="none" xmlns="http://www.w3.org/2000/svg">
<rect width="36" height="36" rx="4" fill="url(#paint0_linear_918_355)"/>
<path d="M21.7086 10.6698L19.8571 10.6667C17.777 10.6667 16.4328 12.0835 16.4328 14.2762V15.9404H14.5712C14.4103 15.9404 14.28 16.0744 14.28 16.2397V18.6509C14.28 18.8162 14.4104 18.95 14.5712 18.95H16.4328V25.0344C16.4328 25.1996 16.563 25.3334 16.7239 25.3334H19.1528C19.3136 25.3334 19.4439 25.1994 19.4439 25.0344V18.95H21.6206C21.7814 18.95 21.9117 18.8162 21.9117 18.6509L21.9126 16.2397C21.9126 16.1603 21.8818 16.0843 21.8273 16.0282C21.7728 15.972 21.6985 15.9404 21.6213 15.9404H19.4439V14.5297C19.4439 13.8516 19.6012 13.5074 20.4611 13.5074L21.7083 13.5069C21.8691 13.5069 21.9993 13.3729 21.9993 13.2079V10.9689C21.9993 10.8039 21.8692 10.6701 21.7086 10.6698Z" fill="white"/>
<defs>
<linearGradient id="paint0_linear_918_355" x1="-2.23517e-08" y1="2" x2="36" y2="35" gradientUnits="userSpaceOnUse">
<stop stop-color="#7572D9" stop-opacity="0.6"/>
<stop offset="0.794792" stop-color="#D62FC3" stop-opacity="0.6"/>
<stop offset="0.9999" stop-color="#B959C6" stop-opacity="0.6"/>
</linearGradient>
</defs>
</svg>
