<svg width="36" height="36" viewBox="0 0 36 36" fill="none" xmlns="http://www.w3.org/2000/svg">
<rect width="36" height="36" rx="4" fill="url(#paint0_linear_918_352)"/>
<path d="M24.6535 15.2533C24.6223 14.5448 24.5077 14.0578 24.3436 13.6357C24.1743 13.1878 23.9139 12.7867 23.5726 12.4533C23.2392 12.1147 22.8355 11.8515 22.3927 11.6849C21.9682 11.5208 21.4837 11.4062 20.7752 11.375C20.0615 11.3411 19.8349 11.3333 18.0246 11.3333C16.2144 11.3333 15.9878 11.3411 15.2767 11.3723C14.5683 11.4036 14.0812 11.5182 13.6593 11.6822C13.2112 11.8515 12.8101 12.112 12.4767 12.4533C12.1381 12.7867 11.8751 13.1904 11.7083 13.6332C11.5442 14.0578 11.4296 14.5422 11.3984 15.2506C11.3645 15.9644 11.3567 16.191 11.3567 18.0012C11.3567 19.8115 11.3645 20.0381 11.3958 20.7492C11.427 21.4576 11.5417 21.9447 11.7058 22.3667C11.8751 22.8147 12.1381 23.2158 12.4767 23.5492C12.8101 23.8878 13.2138 24.1509 13.6566 24.3176C14.0812 24.4817 14.5656 24.5962 15.2742 24.6275C15.9852 24.6588 16.2119 24.6665 18.0221 24.6665C19.8324 24.6665 20.0589 24.6588 20.77 24.6275C21.4785 24.5962 21.9655 24.4817 22.3875 24.3176C23.2835 23.9711 23.992 23.2627 24.3384 22.3667C24.5024 21.9421 24.6171 21.4576 24.6483 20.7492C24.6796 20.0381 24.6874 19.8115 24.6874 18.0012C24.6874 16.191 24.6848 15.9644 24.6535 15.2533ZM23.4528 20.6971C23.4242 21.3482 23.3148 21.6999 23.2236 21.9343C22.9996 22.5151 22.5386 22.9761 21.9577 23.2002C21.7233 23.2914 21.3691 23.4007 20.7205 23.4293C20.0172 23.4607 19.8063 23.4684 18.0273 23.4684C16.2483 23.4684 16.0347 23.4607 15.334 23.4293C14.6828 23.4007 14.3312 23.2914 14.0968 23.2002C13.8077 23.0934 13.5446 22.9241 13.3311 22.7027C13.1097 22.4865 12.9404 22.226 12.8335 21.9369C12.7424 21.7025 12.633 21.3482 12.6044 20.6997C12.5731 19.9964 12.5653 19.7854 12.5653 18.0064C12.5653 16.2274 12.5731 16.0138 12.6044 15.3132C12.633 14.662 12.7424 14.3104 12.8335 14.076C12.9404 13.7868 13.1097 13.5238 13.3337 13.3102C13.5498 13.0888 13.8103 12.9195 14.0994 12.8127C14.3338 12.7216 14.6881 12.6122 15.3366 12.5835C16.0399 12.5523 16.2509 12.5444 18.0298 12.5444C19.8115 12.5444 20.0224 12.5523 20.7231 12.5835C21.3743 12.6122 21.7259 12.7216 21.9603 12.8127C22.2494 12.9195 22.5125 13.0888 22.7261 13.3102C22.9475 13.5264 23.1168 13.7868 23.2236 14.076C23.3148 14.3104 23.4242 14.6646 23.4528 15.3132C23.4841 16.0165 23.4919 16.2274 23.4919 18.0064C23.4919 19.7854 23.4841 19.9938 23.4528 20.6971Z" fill="white"/>
<path d="M18.0246 14.5761C16.1337 14.5761 14.5995 16.1102 14.5995 18.0012C14.5995 19.8923 16.1337 21.4264 18.0246 21.4264C19.9157 21.4264 21.4498 19.8923 21.4498 18.0012C21.4498 16.1102 19.9157 14.5761 18.0246 14.5761ZM18.0246 20.223C16.7979 20.223 15.8028 19.2281 15.8028 18.0012C15.8028 16.7744 16.7979 15.7794 18.0246 15.7794C19.2515 15.7794 20.2465 16.7744 20.2465 18.0012C20.2465 19.2281 19.2515 20.223 18.0246 20.223Z" fill="white"/>
<path d="M22.385 14.4407C22.385 14.8822 22.0269 15.2403 21.5852 15.2403C21.1437 15.2403 20.7856 14.8822 20.7856 14.4407C20.7856 13.999 21.1437 13.641 21.5852 13.641C22.0269 13.641 22.385 13.999 22.385 14.4407Z" fill="white"/>
<defs>
<linearGradient id="paint0_linear_918_352" x1="-2.23517e-08" y1="2" x2="36" y2="35" gradientUnits="userSpaceOnUse">
<stop stop-color="#7572D9" stop-opacity="0.6"/>
<stop offset="0.779167" stop-color="#D62FC3" stop-opacity="0.6"/>
<stop offset="0.9999" stop-color="#B959C6" stop-opacity="0.6"/>
</linearGradient>
</defs>
</svg>
